 <svg  version="1.0" xmlns="http://www.w3.org/2000/svg"  width="300.000000pt" height="300.000000pt" viewBox="0 0 300.000000 300.000000"  preserveAspectRatio="xMidYMid meet">  <g transform="translate(0.000000,300.000000) scale(0.100000,-0.100000)" fill="#2d493a" stroke="none"> <path d="M920 2535 l0 -46 -195 7 -195 7 0 -28 c0 -16 7 -37 17 -47 14 -16 15 -23 3 -58 -11 -32 -11 -56 0 -132 7 -51 18 -105 26 -120 9 -18 14 -71 15 -172 1 -117 5 -157 20 -196 10 -28 19 -73 19 -101 0 -41 -6 -57 -31 -89 -39 -49 -36 -77 13 -109 l38 -24 -7 -264 -6 -264 528 1 c396 1 531 -2 539 -11 8 -8 8 -13 -1 -16 -36 -13 4 -125 50 -142 13 -5 29 -16 36 -25 12 -14 48 -16 281 -16 l268 0 6 42 c4 27 1 58 -8 83 -16 45 -11 114 11 157 8 18 11 42 7 68 -5 27 -2 47 8 62 8 13 18 37 21 53 13 70 28 114 57 169 20 38 30 69 28 89 -5 49 -28 39 -62 -25 -34 -65 -46 -72 -46 -29 0 17 -4 33 -10 36 -5 3 -7 18 -4 34 4 20 1 30 -10 34 -9 4 -16 18 -16 32 0 15 -11 36 -25 49 -14 13 -25 28 -25 34 0 22 -48 43 -93 41 -32 -2 -51 3 -71 18 -15 12 -61 29 -104 39 -59 13 -83 24 -102 45 -14 15 -45 36 -70 45 -59 22 -64 28 -50 54 10 18 9 25 -3 37 -13 13 -19 12 -55 -6 -65 -33 -173 -53 -191 -36 -2 3 56 65 131 139 134 132 165 154 291 204 67 28 2 80 -111 90 -48 4 -65 9 -73 24 -9 17 -13 17 -68 -14 l-57 -32 -22 22 c-12 12 -29 22 -38 22 -9 0 -27 9 -41 20 -29 22 -53 26 -70 9 -8 -8 -16 -2 -29 19 -9 17 -25 33 -33 36 -9 2 -35 12 -58 20 -38 14 -48 14 -86 1 -37 -12 -48 -12 -82 0 -22 8 -49 14 -61 15 -12 0 -35 5 -52 11 -28 10 -31 15 -38 67 -10 90 -26 112 -81 112 -32 0 -33 -1 -33 -45z m70 -7 c5 -13 12 -45 15 -71 8 -61 30 -83 91 -91 70 -10 84 -15 84 -32 0 -19 18 -18 79 7 44 19 55 20 82 9 17 -7 35 -24 40 -37 5 -13 17 -23 28 -23 11 0 25 -9 31 -20 13 -24 28 -25 51 -4 16 14 19 14 38 -5 12 -12 32 -21 45 -21 15 0 26 -7 29 -20 7 -27 50 -26 105 2 35 19 44 21 51 9 6 -9 30 -15 67 -16 61 -2 104 -11 104 -23 -1 -4 -38 -25 -83 -47 -74 -35 -96 -53 -222 -183 -151 -154 -153 -158 -154 -269 -1 -50 -4 -55 -57 -108 -60 -61 -69 -97 -26 -103 21 -3 22 -7 16 -55 -3 -29 -9 -63 -13 -77 -13 -42 -1 -99 23 -112 11 -6 25 -17 29 -24 4 -8 16 -14 26 -14 10 0 24 -7 31 -15 7 -8 21 -15 31 -15 11 0 29 -17 44 -40 14 -22 29 -40 35 -40 5 0 15 -12 22 -27 8 -17 23 -29 38 -31 34 -5 42 -15 47 -56 l3 -36 -302 0 c-167 0 -402 -1 -522 -3 l-220 -2 3 250 3 249 -42 36 -41 35 30 40 c26 34 30 49 31 101 0 34 -8 85 -19 116 -15 45 -18 79 -16 191 2 96 -1 144 -11 161 -28 56 -44 204 -29 274 5 23 2 39 -10 58 l-17 27 198 -4 199 -4 3 43 c3 46 17 55 32 20z m770 -696 c0 -4 -4 -12 -9 -17 -4 -6 -11 -23 -15 -39 -7 -28 -6 -28 23 -23 38 8 121 -25 121 -48 0 -18 26 -30 100 -45 30 -6 79 -25 109 -41 32 -18 62 -29 74 -25 11 3 33 2 48 -1 22 -4 29 -11 29 -29 0 -17 6 -24 18 -24 25 0 45 -45 32 -70 -14 -27 -12 -33 9 -27 16 4 20 -2 23 -37 4 -31 0 -47 -17 -67 -36 -43 -50 -86 -35 -104 11 -14 22 -6 82 56 67 70 87 77 49 15 -11 -17 -26 -63 -34 -102 -8 -39 -22 -83 -32 -97 -12 -19 -15 -37 -10 -64 4 -25 1 -51 -10 -75 -17 -43 -20 -124 -4 -165 6 -15 8 -42 5 -59 l-6 -30 -248 4 c-192 3 -251 7 -263 18 -8 8 -20 14 -26 14 -5 0 -19 10 -31 23 -25 26 -41 87 -23 87 6 0 11 9 11 19 0 10 7 22 15 25 13 5 14 16 9 58 -7 54 -34 98 -61 98 -17 0 -79 63 -96 98 -6 14 -25 30 -42 35 -16 6 -36 16 -43 24 -7 7 -20 13 -28 13 -8 0 -17 6 -20 14 -3 8 -15 16 -26 19 -22 6 -22 27 -2 174 5 33 2 45 -15 62 -21 21 -22 22 -3 46 10 13 32 35 49 49 28 23 31 33 37 106 4 44 10 81 14 81 4 1 23 3 42 5 69 5 96 11 135 31 44 23 65 27 65 15z m585 -510 c-6 -4 -19 -20 -29 -35 -9 -16 -20 -26 -23 -24 -9 10 31 67 47 67 9 0 11 -3 5 -8z"/> </g> </svg> 